<mxfile host="Electron" agent="Mozilla/5.0 (Windows NT 10.0; Win64; x64) AppleWebKit/537.36 (KHTML, like Gecko) draw.io/24.7.17 Chrome/128.0.6613.36 Electron/32.0.1 Safari/537.36" version="24.7.17">
  <diagram name="Page-1" id="oKVt8MBjMBBs5zzT-ZyF">
    <mxGraphModel dx="2444" dy="932" grid="1" gridSize="10" guides="1" tooltips="1" connect="1" arrows="1" fold="1" page="1" pageScale="1" pageWidth="850" pageHeight="1100" math="0" shadow="0">
      <root>
        <mxCell id="0" />
        <mxCell id="1" parent="0" />
        <mxCell id="7TJ9QhRvp5jiKfUdtxeP-3" value="" style="edgeStyle=orthogonalEdgeStyle;rounded=0;orthogonalLoop=1;jettySize=auto;html=1;" edge="1" parent="1" source="yP5g847EMCX4jfwRUblM-2" target="7TJ9QhRvp5jiKfUdtxeP-2">
          <mxGeometry relative="1" as="geometry" />
        </mxCell>
        <mxCell id="yP5g847EMCX4jfwRUblM-2" value="Start" style="ellipse;whiteSpace=wrap;html=1;" parent="1" vertex="1">
          <mxGeometry x="370" width="120" height="80" as="geometry" />
        </mxCell>
        <mxCell id="7TJ9QhRvp5jiKfUdtxeP-7" value="" style="edgeStyle=orthogonalEdgeStyle;rounded=0;orthogonalLoop=1;jettySize=auto;html=1;" edge="1" parent="1" source="7TJ9QhRvp5jiKfUdtxeP-2" target="7TJ9QhRvp5jiKfUdtxeP-6">
          <mxGeometry relative="1" as="geometry" />
        </mxCell>
        <mxCell id="7TJ9QhRvp5jiKfUdtxeP-2" value="Daftar Akun" style="whiteSpace=wrap;html=1;" vertex="1" parent="1">
          <mxGeometry x="370" y="130" width="120" height="60" as="geometry" />
        </mxCell>
        <mxCell id="7TJ9QhRvp5jiKfUdtxeP-9" value="" style="edgeStyle=orthogonalEdgeStyle;rounded=0;orthogonalLoop=1;jettySize=auto;html=1;" edge="1" parent="1" source="7TJ9QhRvp5jiKfUdtxeP-6" target="7TJ9QhRvp5jiKfUdtxeP-8">
          <mxGeometry relative="1" as="geometry" />
        </mxCell>
        <mxCell id="7TJ9QhRvp5jiKfUdtxeP-6" value="Akun Telah&lt;div&gt;Terdaftar&lt;/div&gt;" style="whiteSpace=wrap;html=1;" vertex="1" parent="1">
          <mxGeometry x="370" y="240" width="120" height="60" as="geometry" />
        </mxCell>
        <mxCell id="7TJ9QhRvp5jiKfUdtxeP-11" value="" style="edgeStyle=orthogonalEdgeStyle;rounded=0;orthogonalLoop=1;jettySize=auto;html=1;" edge="1" parent="1" source="7TJ9QhRvp5jiKfUdtxeP-8" target="7TJ9QhRvp5jiKfUdtxeP-25">
          <mxGeometry relative="1" as="geometry">
            <mxPoint x="649.984126984127" y="410.04761904761904" as="targetPoint" />
            <Array as="points">
              <mxPoint x="510" y="410" />
              <mxPoint x="550" y="411" />
            </Array>
          </mxGeometry>
        </mxCell>
        <mxCell id="7TJ9QhRvp5jiKfUdtxeP-12" value="True" style="edgeLabel;html=1;align=center;verticalAlign=middle;resizable=0;points=[];" vertex="1" connectable="0" parent="7TJ9QhRvp5jiKfUdtxeP-11">
          <mxGeometry x="-0.1725" y="2" relative="1" as="geometry">
            <mxPoint as="offset" />
          </mxGeometry>
        </mxCell>
        <mxCell id="7TJ9QhRvp5jiKfUdtxeP-16" value="" style="edgeStyle=orthogonalEdgeStyle;rounded=0;orthogonalLoop=1;jettySize=auto;html=1;" edge="1" parent="1" source="7TJ9QhRvp5jiKfUdtxeP-8" target="7TJ9QhRvp5jiKfUdtxeP-23">
          <mxGeometry relative="1" as="geometry">
            <mxPoint x="230" y="409.9999999999999" as="targetPoint" />
          </mxGeometry>
        </mxCell>
        <mxCell id="7TJ9QhRvp5jiKfUdtxeP-17" value="False" style="edgeLabel;html=1;align=center;verticalAlign=middle;resizable=0;points=[];" vertex="1" connectable="0" parent="7TJ9QhRvp5jiKfUdtxeP-16">
          <mxGeometry x="-0.1292" y="4" relative="1" as="geometry">
            <mxPoint y="-4" as="offset" />
          </mxGeometry>
        </mxCell>
        <mxCell id="7TJ9QhRvp5jiKfUdtxeP-8" value="Login" style="rhombus;whiteSpace=wrap;html=1;" vertex="1" parent="1">
          <mxGeometry x="390" y="370" width="80" height="80" as="geometry" />
        </mxCell>
        <mxCell id="7TJ9QhRvp5jiKfUdtxeP-27" value="" style="edgeStyle=orthogonalEdgeStyle;rounded=0;orthogonalLoop=1;jettySize=auto;html=1;" edge="1" parent="1" source="7TJ9QhRvp5jiKfUdtxeP-23" target="7TJ9QhRvp5jiKfUdtxeP-26">
          <mxGeometry relative="1" as="geometry" />
        </mxCell>
        <mxCell id="7TJ9QhRvp5jiKfUdtxeP-23" value="Admin" style="rounded=1;whiteSpace=wrap;html=1;" vertex="1" parent="1">
          <mxGeometry x="110" y="379.9999999999999" width="120" height="60" as="geometry" />
        </mxCell>
        <mxCell id="7TJ9QhRvp5jiKfUdtxeP-29" value="" style="edgeStyle=orthogonalEdgeStyle;rounded=0;orthogonalLoop=1;jettySize=auto;html=1;" edge="1" parent="1" source="7TJ9QhRvp5jiKfUdtxeP-25" target="7TJ9QhRvp5jiKfUdtxeP-28">
          <mxGeometry relative="1" as="geometry" />
        </mxCell>
        <mxCell id="7TJ9QhRvp5jiKfUdtxeP-25" value="Jemaat" style="rounded=1;whiteSpace=wrap;html=1;" vertex="1" parent="1">
          <mxGeometry x="630.004126984127" y="379.997619047619" width="120" height="60" as="geometry" />
        </mxCell>
        <mxCell id="7TJ9QhRvp5jiKfUdtxeP-66" style="edgeStyle=orthogonalEdgeStyle;rounded=0;orthogonalLoop=1;jettySize=auto;html=1;exitX=0.5;exitY=1;exitDx=0;exitDy=0;" edge="1" parent="1" source="7TJ9QhRvp5jiKfUdtxeP-26" target="7TJ9QhRvp5jiKfUdtxeP-62">
          <mxGeometry relative="1" as="geometry" />
        </mxCell>
        <mxCell id="7TJ9QhRvp5jiKfUdtxeP-26" value="Input(opsi)" style="shape=parallelogram;perimeter=parallelogramPerimeter;whiteSpace=wrap;html=1;fixedSize=1;rounded=1;" vertex="1" parent="1">
          <mxGeometry x="110" y="489.9999999999999" width="120" height="60" as="geometry" />
        </mxCell>
        <mxCell id="7TJ9QhRvp5jiKfUdtxeP-31" value="" style="edgeStyle=orthogonalEdgeStyle;rounded=0;orthogonalLoop=1;jettySize=auto;html=1;" edge="1" parent="1" source="7TJ9QhRvp5jiKfUdtxeP-28" target="7TJ9QhRvp5jiKfUdtxeP-30">
          <mxGeometry relative="1" as="geometry" />
        </mxCell>
        <mxCell id="7TJ9QhRvp5jiKfUdtxeP-28" value="Input(opsi)" style="shape=parallelogram;perimeter=parallelogramPerimeter;whiteSpace=wrap;html=1;fixedSize=1;rounded=1;" vertex="1" parent="1">
          <mxGeometry x="630.004126984127" y="489.9976190476191" width="120" height="60" as="geometry" />
        </mxCell>
        <mxCell id="7TJ9QhRvp5jiKfUdtxeP-33" value="" style="edgeStyle=orthogonalEdgeStyle;rounded=0;orthogonalLoop=1;jettySize=auto;html=1;" edge="1" parent="1" source="7TJ9QhRvp5jiKfUdtxeP-30" target="7TJ9QhRvp5jiKfUdtxeP-32">
          <mxGeometry relative="1" as="geometry" />
        </mxCell>
        <mxCell id="7TJ9QhRvp5jiKfUdtxeP-34" value="True" style="edgeLabel;html=1;align=center;verticalAlign=middle;resizable=0;points=[];" vertex="1" connectable="0" parent="7TJ9QhRvp5jiKfUdtxeP-33">
          <mxGeometry x="-0.0595" relative="1" as="geometry">
            <mxPoint as="offset" />
          </mxGeometry>
        </mxCell>
        <mxCell id="7TJ9QhRvp5jiKfUdtxeP-36" value="" style="edgeStyle=orthogonalEdgeStyle;rounded=0;orthogonalLoop=1;jettySize=auto;html=1;" edge="1" parent="1" source="7TJ9QhRvp5jiKfUdtxeP-30" target="7TJ9QhRvp5jiKfUdtxeP-35">
          <mxGeometry relative="1" as="geometry" />
        </mxCell>
        <mxCell id="7TJ9QhRvp5jiKfUdtxeP-37" value="False" style="edgeLabel;html=1;align=center;verticalAlign=middle;resizable=0;points=[];" vertex="1" connectable="0" parent="7TJ9QhRvp5jiKfUdtxeP-36">
          <mxGeometry x="-0.0988" y="-3" relative="1" as="geometry">
            <mxPoint as="offset" />
          </mxGeometry>
        </mxCell>
        <mxCell id="7TJ9QhRvp5jiKfUdtxeP-30" value="Opsi == &quot;1&quot;" style="rhombus;whiteSpace=wrap;html=1;rounded=1;" vertex="1" parent="1">
          <mxGeometry x="630" y="600" width="120" height="100" as="geometry" />
        </mxCell>
        <mxCell id="7TJ9QhRvp5jiKfUdtxeP-104" style="edgeStyle=orthogonalEdgeStyle;rounded=0;orthogonalLoop=1;jettySize=auto;html=1;exitX=1;exitY=0.5;exitDx=0;exitDy=0;entryX=1;entryY=0.5;entryDx=0;entryDy=0;" edge="1" parent="1" source="7TJ9QhRvp5jiKfUdtxeP-32" target="7TJ9QhRvp5jiKfUdtxeP-25">
          <mxGeometry relative="1" as="geometry" />
        </mxCell>
        <mxCell id="7TJ9QhRvp5jiKfUdtxeP-32" value="Lihat Data Jemaat" style="rounded=1;whiteSpace=wrap;html=1;" vertex="1" parent="1">
          <mxGeometry x="900" y="620" width="120" height="60" as="geometry" />
        </mxCell>
        <mxCell id="7TJ9QhRvp5jiKfUdtxeP-39" value="" style="edgeStyle=orthogonalEdgeStyle;rounded=0;orthogonalLoop=1;jettySize=auto;html=1;" edge="1" parent="1" source="7TJ9QhRvp5jiKfUdtxeP-35" target="7TJ9QhRvp5jiKfUdtxeP-38">
          <mxGeometry relative="1" as="geometry" />
        </mxCell>
        <mxCell id="7TJ9QhRvp5jiKfUdtxeP-40" value="True" style="edgeLabel;html=1;align=center;verticalAlign=middle;resizable=0;points=[];" vertex="1" connectable="0" parent="7TJ9QhRvp5jiKfUdtxeP-39">
          <mxGeometry x="-0.0686" y="1" relative="1" as="geometry">
            <mxPoint as="offset" />
          </mxGeometry>
        </mxCell>
        <mxCell id="7TJ9QhRvp5jiKfUdtxeP-42" value="" style="edgeStyle=orthogonalEdgeStyle;rounded=0;orthogonalLoop=1;jettySize=auto;html=1;" edge="1" parent="1" source="7TJ9QhRvp5jiKfUdtxeP-35" target="7TJ9QhRvp5jiKfUdtxeP-41">
          <mxGeometry relative="1" as="geometry" />
        </mxCell>
        <mxCell id="7TJ9QhRvp5jiKfUdtxeP-43" value="False" style="edgeLabel;html=1;align=center;verticalAlign=middle;resizable=0;points=[];" vertex="1" connectable="0" parent="7TJ9QhRvp5jiKfUdtxeP-42">
          <mxGeometry x="-0.0008" y="-1" relative="1" as="geometry">
            <mxPoint as="offset" />
          </mxGeometry>
        </mxCell>
        <mxCell id="7TJ9QhRvp5jiKfUdtxeP-35" value="Opsi == &quot;2&quot;" style="rhombus;whiteSpace=wrap;html=1;rounded=1;" vertex="1" parent="1">
          <mxGeometry x="630" y="790" width="120" height="110" as="geometry" />
        </mxCell>
        <mxCell id="7TJ9QhRvp5jiKfUdtxeP-103" style="edgeStyle=orthogonalEdgeStyle;rounded=0;orthogonalLoop=1;jettySize=auto;html=1;exitX=1;exitY=0.5;exitDx=0;exitDy=0;entryX=1;entryY=0.5;entryDx=0;entryDy=0;" edge="1" parent="1" source="7TJ9QhRvp5jiKfUdtxeP-38" target="7TJ9QhRvp5jiKfUdtxeP-25">
          <mxGeometry relative="1" as="geometry" />
        </mxCell>
        <mxCell id="7TJ9QhRvp5jiKfUdtxeP-38" value="Tambah Data Jemaat" style="rounded=1;whiteSpace=wrap;html=1;" vertex="1" parent="1">
          <mxGeometry x="900" y="815" width="120" height="60" as="geometry" />
        </mxCell>
        <mxCell id="7TJ9QhRvp5jiKfUdtxeP-45" value="" style="edgeStyle=orthogonalEdgeStyle;rounded=0;orthogonalLoop=1;jettySize=auto;html=1;" edge="1" parent="1" source="7TJ9QhRvp5jiKfUdtxeP-41" target="7TJ9QhRvp5jiKfUdtxeP-44">
          <mxGeometry relative="1" as="geometry" />
        </mxCell>
        <mxCell id="7TJ9QhRvp5jiKfUdtxeP-46" value="True" style="edgeLabel;html=1;align=center;verticalAlign=middle;resizable=0;points=[];" vertex="1" connectable="0" parent="7TJ9QhRvp5jiKfUdtxeP-45">
          <mxGeometry x="-0.0457" y="-2" relative="1" as="geometry">
            <mxPoint as="offset" />
          </mxGeometry>
        </mxCell>
        <mxCell id="7TJ9QhRvp5jiKfUdtxeP-41" value="Opsi == &quot;3&quot;" style="rhombus;whiteSpace=wrap;html=1;rounded=1;" vertex="1" parent="1">
          <mxGeometry x="630" y="1020" width="120" height="110" as="geometry" />
        </mxCell>
        <mxCell id="7TJ9QhRvp5jiKfUdtxeP-50" value="" style="edgeStyle=orthogonalEdgeStyle;rounded=0;orthogonalLoop=1;jettySize=auto;html=1;" edge="1" parent="1" source="7TJ9QhRvp5jiKfUdtxeP-44" target="7TJ9QhRvp5jiKfUdtxeP-49">
          <mxGeometry relative="1" as="geometry" />
        </mxCell>
        <mxCell id="7TJ9QhRvp5jiKfUdtxeP-102" style="edgeStyle=orthogonalEdgeStyle;rounded=0;orthogonalLoop=1;jettySize=auto;html=1;exitX=1;exitY=0.5;exitDx=0;exitDy=0;entryX=1;entryY=0.5;entryDx=0;entryDy=0;" edge="1" parent="1" source="7TJ9QhRvp5jiKfUdtxeP-44" target="7TJ9QhRvp5jiKfUdtxeP-25">
          <mxGeometry relative="1" as="geometry" />
        </mxCell>
        <mxCell id="7TJ9QhRvp5jiKfUdtxeP-44" value="Logout" style="whiteSpace=wrap;html=1;rounded=1;" vertex="1" parent="1">
          <mxGeometry x="900" y="1045" width="120" height="60" as="geometry" />
        </mxCell>
        <mxCell id="7TJ9QhRvp5jiKfUdtxeP-52" value="" style="edgeStyle=orthogonalEdgeStyle;rounded=0;orthogonalLoop=1;jettySize=auto;html=1;" edge="1" parent="1" source="7TJ9QhRvp5jiKfUdtxeP-49" target="7TJ9QhRvp5jiKfUdtxeP-51">
          <mxGeometry relative="1" as="geometry" />
        </mxCell>
        <mxCell id="7TJ9QhRvp5jiKfUdtxeP-55" value="True" style="edgeLabel;html=1;align=center;verticalAlign=middle;resizable=0;points=[];" vertex="1" connectable="0" parent="7TJ9QhRvp5jiKfUdtxeP-52">
          <mxGeometry x="-0.3886" y="-4" relative="1" as="geometry">
            <mxPoint y="1" as="offset" />
          </mxGeometry>
        </mxCell>
        <mxCell id="7TJ9QhRvp5jiKfUdtxeP-54" value="" style="edgeStyle=orthogonalEdgeStyle;rounded=0;orthogonalLoop=1;jettySize=auto;html=1;" edge="1" parent="1" source="7TJ9QhRvp5jiKfUdtxeP-49" target="7TJ9QhRvp5jiKfUdtxeP-53">
          <mxGeometry relative="1" as="geometry" />
        </mxCell>
        <mxCell id="7TJ9QhRvp5jiKfUdtxeP-56" value="False" style="edgeLabel;html=1;align=center;verticalAlign=middle;resizable=0;points=[];" vertex="1" connectable="0" parent="7TJ9QhRvp5jiKfUdtxeP-54">
          <mxGeometry x="-0.2062" y="1" relative="1" as="geometry">
            <mxPoint as="offset" />
          </mxGeometry>
        </mxCell>
        <mxCell id="7TJ9QhRvp5jiKfUdtxeP-49" value="Yakin Keluar?" style="rhombus;whiteSpace=wrap;html=1;rounded=1;" vertex="1" parent="1">
          <mxGeometry x="902.5" y="1180" width="115" height="100" as="geometry" />
        </mxCell>
        <mxCell id="7TJ9QhRvp5jiKfUdtxeP-114" style="edgeStyle=orthogonalEdgeStyle;rounded=0;orthogonalLoop=1;jettySize=auto;html=1;exitX=0.5;exitY=1;exitDx=0;exitDy=0;entryX=1;entryY=0.5;entryDx=0;entryDy=0;" edge="1" parent="1" source="7TJ9QhRvp5jiKfUdtxeP-51" target="7TJ9QhRvp5jiKfUdtxeP-112">
          <mxGeometry relative="1" as="geometry" />
        </mxCell>
        <mxCell id="7TJ9QhRvp5jiKfUdtxeP-51" value="Logout" style="whiteSpace=wrap;html=1;rounded=1;" vertex="1" parent="1">
          <mxGeometry x="900" y="1450" width="120" height="60" as="geometry" />
        </mxCell>
        <mxCell id="7TJ9QhRvp5jiKfUdtxeP-59" style="edgeStyle=orthogonalEdgeStyle;rounded=0;orthogonalLoop=1;jettySize=auto;html=1;exitX=0.5;exitY=0;exitDx=0;exitDy=0;entryX=1;entryY=0.5;entryDx=0;entryDy=0;" edge="1" parent="1" source="7TJ9QhRvp5jiKfUdtxeP-53" target="7TJ9QhRvp5jiKfUdtxeP-25">
          <mxGeometry relative="1" as="geometry" />
        </mxCell>
        <mxCell id="7TJ9QhRvp5jiKfUdtxeP-53" value="Tidak" style="whiteSpace=wrap;html=1;rounded=1;" vertex="1" parent="1">
          <mxGeometry x="1180" y="1200" width="120" height="60" as="geometry" />
        </mxCell>
        <mxCell id="7TJ9QhRvp5jiKfUdtxeP-68" value="" style="edgeStyle=orthogonalEdgeStyle;rounded=0;orthogonalLoop=1;jettySize=auto;html=1;" edge="1" parent="1" source="7TJ9QhRvp5jiKfUdtxeP-62" target="7TJ9QhRvp5jiKfUdtxeP-67">
          <mxGeometry relative="1" as="geometry" />
        </mxCell>
        <mxCell id="7TJ9QhRvp5jiKfUdtxeP-80" value="False" style="edgeLabel;html=1;align=center;verticalAlign=middle;resizable=0;points=[];" vertex="1" connectable="0" parent="7TJ9QhRvp5jiKfUdtxeP-68">
          <mxGeometry x="-0.2917" y="-2" relative="1" as="geometry">
            <mxPoint as="offset" />
          </mxGeometry>
        </mxCell>
        <mxCell id="7TJ9QhRvp5jiKfUdtxeP-78" style="edgeStyle=orthogonalEdgeStyle;rounded=0;orthogonalLoop=1;jettySize=auto;html=1;exitX=0;exitY=0.5;exitDx=0;exitDy=0;entryX=1;entryY=0.5;entryDx=0;entryDy=0;" edge="1" parent="1" source="7TJ9QhRvp5jiKfUdtxeP-62" target="7TJ9QhRvp5jiKfUdtxeP-77">
          <mxGeometry relative="1" as="geometry" />
        </mxCell>
        <mxCell id="7TJ9QhRvp5jiKfUdtxeP-79" value="True" style="edgeLabel;html=1;align=center;verticalAlign=middle;resizable=0;points=[];" vertex="1" connectable="0" parent="7TJ9QhRvp5jiKfUdtxeP-78">
          <mxGeometry x="0.0494" y="-2" relative="1" as="geometry">
            <mxPoint as="offset" />
          </mxGeometry>
        </mxCell>
        <mxCell id="7TJ9QhRvp5jiKfUdtxeP-62" value="Opsi == &quot;1&quot;" style="rhombus;whiteSpace=wrap;html=1;rounded=1;" vertex="1" parent="1">
          <mxGeometry x="110" y="600" width="120" height="100" as="geometry" />
        </mxCell>
        <mxCell id="7TJ9QhRvp5jiKfUdtxeP-70" value="" style="edgeStyle=orthogonalEdgeStyle;rounded=0;orthogonalLoop=1;jettySize=auto;html=1;" edge="1" parent="1" source="7TJ9QhRvp5jiKfUdtxeP-67" target="7TJ9QhRvp5jiKfUdtxeP-69">
          <mxGeometry relative="1" as="geometry" />
        </mxCell>
        <mxCell id="7TJ9QhRvp5jiKfUdtxeP-81" value="False" style="edgeLabel;html=1;align=center;verticalAlign=middle;resizable=0;points=[];" vertex="1" connectable="0" parent="7TJ9QhRvp5jiKfUdtxeP-70">
          <mxGeometry x="-0.1964" y="-2" relative="1" as="geometry">
            <mxPoint as="offset" />
          </mxGeometry>
        </mxCell>
        <mxCell id="7TJ9QhRvp5jiKfUdtxeP-87" style="edgeStyle=orthogonalEdgeStyle;rounded=0;orthogonalLoop=1;jettySize=auto;html=1;exitX=0;exitY=0.5;exitDx=0;exitDy=0;entryX=1;entryY=0.5;entryDx=0;entryDy=0;" edge="1" parent="1" source="7TJ9QhRvp5jiKfUdtxeP-67" target="7TJ9QhRvp5jiKfUdtxeP-85">
          <mxGeometry relative="1" as="geometry" />
        </mxCell>
        <mxCell id="7TJ9QhRvp5jiKfUdtxeP-107" value="True" style="edgeLabel;html=1;align=center;verticalAlign=middle;resizable=0;points=[];" vertex="1" connectable="0" parent="7TJ9QhRvp5jiKfUdtxeP-87">
          <mxGeometry x="-0.0981" y="-1" relative="1" as="geometry">
            <mxPoint x="-8" y="1" as="offset" />
          </mxGeometry>
        </mxCell>
        <mxCell id="7TJ9QhRvp5jiKfUdtxeP-67" value="Opsi == &quot;2&quot;" style="rhombus;whiteSpace=wrap;html=1;rounded=1;" vertex="1" parent="1">
          <mxGeometry x="110" y="780" width="120" height="100" as="geometry" />
        </mxCell>
        <mxCell id="7TJ9QhRvp5jiKfUdtxeP-72" value="" style="edgeStyle=orthogonalEdgeStyle;rounded=0;orthogonalLoop=1;jettySize=auto;html=1;" edge="1" parent="1" source="7TJ9QhRvp5jiKfUdtxeP-69" target="7TJ9QhRvp5jiKfUdtxeP-71">
          <mxGeometry relative="1" as="geometry" />
        </mxCell>
        <mxCell id="7TJ9QhRvp5jiKfUdtxeP-82" value="False" style="edgeLabel;html=1;align=center;verticalAlign=middle;resizable=0;points=[];" vertex="1" connectable="0" parent="7TJ9QhRvp5jiKfUdtxeP-72">
          <mxGeometry x="-0.1488" relative="1" as="geometry">
            <mxPoint as="offset" />
          </mxGeometry>
        </mxCell>
        <mxCell id="7TJ9QhRvp5jiKfUdtxeP-91" style="edgeStyle=orthogonalEdgeStyle;rounded=0;orthogonalLoop=1;jettySize=auto;html=1;exitX=0;exitY=0.5;exitDx=0;exitDy=0;entryX=1;entryY=0.5;entryDx=0;entryDy=0;" edge="1" parent="1" source="7TJ9QhRvp5jiKfUdtxeP-69" target="7TJ9QhRvp5jiKfUdtxeP-90">
          <mxGeometry relative="1" as="geometry" />
        </mxCell>
        <mxCell id="7TJ9QhRvp5jiKfUdtxeP-108" value="True" style="edgeLabel;html=1;align=center;verticalAlign=middle;resizable=0;points=[];" vertex="1" connectable="0" parent="7TJ9QhRvp5jiKfUdtxeP-91">
          <mxGeometry x="-0.0019" y="-4" relative="1" as="geometry">
            <mxPoint as="offset" />
          </mxGeometry>
        </mxCell>
        <mxCell id="7TJ9QhRvp5jiKfUdtxeP-69" value="Opsi == &quot;3&quot;" style="rhombus;whiteSpace=wrap;html=1;rounded=1;" vertex="1" parent="1">
          <mxGeometry x="110" y="960" width="120" height="100" as="geometry" />
        </mxCell>
        <mxCell id="7TJ9QhRvp5jiKfUdtxeP-74" value="" style="edgeStyle=orthogonalEdgeStyle;rounded=0;orthogonalLoop=1;jettySize=auto;html=1;" edge="1" parent="1" source="7TJ9QhRvp5jiKfUdtxeP-71" target="7TJ9QhRvp5jiKfUdtxeP-73">
          <mxGeometry relative="1" as="geometry" />
        </mxCell>
        <mxCell id="7TJ9QhRvp5jiKfUdtxeP-84" value="False" style="edgeLabel;html=1;align=center;verticalAlign=middle;resizable=0;points=[];" vertex="1" connectable="0" parent="7TJ9QhRvp5jiKfUdtxeP-74">
          <mxGeometry x="-0.2583" relative="1" as="geometry">
            <mxPoint as="offset" />
          </mxGeometry>
        </mxCell>
        <mxCell id="7TJ9QhRvp5jiKfUdtxeP-92" style="edgeStyle=orthogonalEdgeStyle;rounded=0;orthogonalLoop=1;jettySize=auto;html=1;exitX=0;exitY=0.5;exitDx=0;exitDy=0;" edge="1" parent="1" source="7TJ9QhRvp5jiKfUdtxeP-71" target="7TJ9QhRvp5jiKfUdtxeP-89">
          <mxGeometry relative="1" as="geometry" />
        </mxCell>
        <mxCell id="7TJ9QhRvp5jiKfUdtxeP-109" value="True" style="edgeLabel;html=1;align=center;verticalAlign=middle;resizable=0;points=[];" vertex="1" connectable="0" parent="7TJ9QhRvp5jiKfUdtxeP-92">
          <mxGeometry x="-0.0404" y="-1" relative="1" as="geometry">
            <mxPoint as="offset" />
          </mxGeometry>
        </mxCell>
        <mxCell id="7TJ9QhRvp5jiKfUdtxeP-71" value="Opsi == &quot;4&quot;" style="rhombus;whiteSpace=wrap;html=1;rounded=1;" vertex="1" parent="1">
          <mxGeometry x="110" y="1140" width="120" height="100" as="geometry" />
        </mxCell>
        <mxCell id="7TJ9QhRvp5jiKfUdtxeP-93" style="edgeStyle=orthogonalEdgeStyle;rounded=0;orthogonalLoop=1;jettySize=auto;html=1;exitX=0;exitY=0.5;exitDx=0;exitDy=0;entryX=1;entryY=0.5;entryDx=0;entryDy=0;" edge="1" parent="1" source="7TJ9QhRvp5jiKfUdtxeP-73" target="7TJ9QhRvp5jiKfUdtxeP-88">
          <mxGeometry relative="1" as="geometry" />
        </mxCell>
        <mxCell id="7TJ9QhRvp5jiKfUdtxeP-110" value="False" style="edgeLabel;html=1;align=center;verticalAlign=middle;resizable=0;points=[];" vertex="1" connectable="0" parent="7TJ9QhRvp5jiKfUdtxeP-93">
          <mxGeometry x="-0.1672" y="-1" relative="1" as="geometry">
            <mxPoint as="offset" />
          </mxGeometry>
        </mxCell>
        <mxCell id="7TJ9QhRvp5jiKfUdtxeP-95" value="" style="edgeStyle=orthogonalEdgeStyle;rounded=0;orthogonalLoop=1;jettySize=auto;html=1;" edge="1" parent="1" source="7TJ9QhRvp5jiKfUdtxeP-73" target="7TJ9QhRvp5jiKfUdtxeP-94">
          <mxGeometry relative="1" as="geometry" />
        </mxCell>
        <mxCell id="7TJ9QhRvp5jiKfUdtxeP-111" value="True" style="edgeLabel;html=1;align=center;verticalAlign=middle;resizable=0;points=[];" vertex="1" connectable="0" parent="7TJ9QhRvp5jiKfUdtxeP-95">
          <mxGeometry x="-0.1323" relative="1" as="geometry">
            <mxPoint as="offset" />
          </mxGeometry>
        </mxCell>
        <mxCell id="7TJ9QhRvp5jiKfUdtxeP-73" value="Opsi == &quot;5&quot;" style="rhombus;whiteSpace=wrap;html=1;rounded=1;" vertex="1" parent="1">
          <mxGeometry x="110" y="1320" width="120" height="100" as="geometry" />
        </mxCell>
        <mxCell id="7TJ9QhRvp5jiKfUdtxeP-101" style="edgeStyle=orthogonalEdgeStyle;rounded=0;orthogonalLoop=1;jettySize=auto;html=1;exitX=0;exitY=0.5;exitDx=0;exitDy=0;entryX=0;entryY=0.5;entryDx=0;entryDy=0;" edge="1" parent="1" source="7TJ9QhRvp5jiKfUdtxeP-77" target="7TJ9QhRvp5jiKfUdtxeP-23">
          <mxGeometry relative="1" as="geometry" />
        </mxCell>
        <mxCell id="7TJ9QhRvp5jiKfUdtxeP-77" value="Lihat Data Jemaat" style="rounded=1;whiteSpace=wrap;html=1;" vertex="1" parent="1">
          <mxGeometry x="-170" y="620" width="120" height="60" as="geometry" />
        </mxCell>
        <mxCell id="7TJ9QhRvp5jiKfUdtxeP-100" style="edgeStyle=orthogonalEdgeStyle;rounded=0;orthogonalLoop=1;jettySize=auto;html=1;exitX=0;exitY=0.5;exitDx=0;exitDy=0;entryX=0;entryY=0.5;entryDx=0;entryDy=0;" edge="1" parent="1" source="7TJ9QhRvp5jiKfUdtxeP-85" target="7TJ9QhRvp5jiKfUdtxeP-23">
          <mxGeometry relative="1" as="geometry" />
        </mxCell>
        <mxCell id="7TJ9QhRvp5jiKfUdtxeP-85" value="Tambah Data Jemaat" style="rounded=1;whiteSpace=wrap;html=1;" vertex="1" parent="1">
          <mxGeometry x="-170" y="800" width="120" height="60" as="geometry" />
        </mxCell>
        <mxCell id="7TJ9QhRvp5jiKfUdtxeP-96" style="edgeStyle=orthogonalEdgeStyle;rounded=0;orthogonalLoop=1;jettySize=auto;html=1;exitX=0.5;exitY=0;exitDx=0;exitDy=0;entryX=0;entryY=0.5;entryDx=0;entryDy=0;" edge="1" parent="1" source="7TJ9QhRvp5jiKfUdtxeP-88" target="7TJ9QhRvp5jiKfUdtxeP-23">
          <mxGeometry relative="1" as="geometry" />
        </mxCell>
        <mxCell id="7TJ9QhRvp5jiKfUdtxeP-88" value="Tidak" style="rounded=1;whiteSpace=wrap;html=1;" vertex="1" parent="1">
          <mxGeometry x="-320" y="1340" width="120" height="60" as="geometry" />
        </mxCell>
        <mxCell id="7TJ9QhRvp5jiKfUdtxeP-98" style="edgeStyle=orthogonalEdgeStyle;rounded=0;orthogonalLoop=1;jettySize=auto;html=1;exitX=0;exitY=0.5;exitDx=0;exitDy=0;entryX=0;entryY=0.5;entryDx=0;entryDy=0;" edge="1" parent="1" source="7TJ9QhRvp5jiKfUdtxeP-89" target="7TJ9QhRvp5jiKfUdtxeP-23">
          <mxGeometry relative="1" as="geometry" />
        </mxCell>
        <mxCell id="7TJ9QhRvp5jiKfUdtxeP-89" value="Hapus Data Jemaat" style="rounded=1;whiteSpace=wrap;html=1;" vertex="1" parent="1">
          <mxGeometry x="-170" y="1160" width="120" height="60" as="geometry" />
        </mxCell>
        <mxCell id="7TJ9QhRvp5jiKfUdtxeP-99" style="edgeStyle=orthogonalEdgeStyle;rounded=0;orthogonalLoop=1;jettySize=auto;html=1;exitX=0;exitY=0.5;exitDx=0;exitDy=0;entryX=0;entryY=0.5;entryDx=0;entryDy=0;" edge="1" parent="1" source="7TJ9QhRvp5jiKfUdtxeP-90" target="7TJ9QhRvp5jiKfUdtxeP-23">
          <mxGeometry relative="1" as="geometry" />
        </mxCell>
        <mxCell id="7TJ9QhRvp5jiKfUdtxeP-90" value="Update Data Jemaat" style="rounded=1;whiteSpace=wrap;html=1;" vertex="1" parent="1">
          <mxGeometry x="-170" y="980" width="120" height="60" as="geometry" />
        </mxCell>
        <mxCell id="7TJ9QhRvp5jiKfUdtxeP-113" style="edgeStyle=orthogonalEdgeStyle;rounded=0;orthogonalLoop=1;jettySize=auto;html=1;exitX=0.5;exitY=1;exitDx=0;exitDy=0;entryX=0;entryY=0.5;entryDx=0;entryDy=0;" edge="1" parent="1" source="7TJ9QhRvp5jiKfUdtxeP-94" target="7TJ9QhRvp5jiKfUdtxeP-112">
          <mxGeometry relative="1" as="geometry" />
        </mxCell>
        <mxCell id="7TJ9QhRvp5jiKfUdtxeP-94" value="Logout" style="whiteSpace=wrap;html=1;rounded=1;" vertex="1" parent="1">
          <mxGeometry x="110" y="1520" width="120" height="60" as="geometry" />
        </mxCell>
        <mxCell id="7TJ9QhRvp5jiKfUdtxeP-112" value="End" style="ellipse;whiteSpace=wrap;html=1;" vertex="1" parent="1">
          <mxGeometry x="460" y="1700" width="120" height="80" as="geometry" />
        </mxCell>
      </root>
    </mxGraphModel>
  </diagram>
</mxfile>
